<?xml version="1.0" encoding="UTF-8"?>
<!DOCTYPE svg PUBLIC "-//W3C//DTD SVG 1.1//EN" "http://www.w3.org/Graphics/SVG/1.1/DTD/svg11.dtd">
<svg xmlns="http://www.w3.org/2000/svg" version="1.1" width="500px" height="500px" style="shape-rendering:geometricPrecision; text-rendering:geometricPrecision; image-rendering:optimizeQuality; fill-rule:evenodd; clip-rule:evenodd" xmlns:xlink="http://www.w3.org/1999/xlink">
<g><path style="opacity:1" fill="#fefefe" d="M -0.5,-0.5 C 166.167,-0.5 332.833,-0.5 499.5,-0.5C 499.5,166.167 499.5,332.833 499.5,499.5C 332.833,499.5 166.167,499.5 -0.5,499.5C -0.5,332.833 -0.5,166.167 -0.5,-0.5 Z"/></g>
<g><path style="opacity:1" fill="#030303" d="M 215.5,97.5 C 237.498,95.399 257.831,100.232 276.5,112C 288.086,116.391 294.086,112.558 294.5,100.5C 295.833,100.5 297.167,100.5 298.5,100.5C 298.5,125.167 298.5,149.833 298.5,174.5C 297.167,174.5 295.833,174.5 294.5,174.5C 294.741,148.818 284.741,128.318 264.5,113C 249.31,104.243 233.31,102.243 216.5,107C 200.328,114.859 194.494,127.692 199,145.5C 200.211,151.132 202.211,156.466 205,161.5C 210.427,168.931 216.593,175.764 223.5,182C 242.167,195 260.833,208 279.5,221C 293.32,230.82 303.153,243.653 309,259.5C 316.716,302.105 299.216,326.605 256.5,333C 240.895,334.522 225.562,333.189 210.5,329C 201.358,324.088 191.691,320.921 181.5,319.5C 173.155,318.02 168.488,321.353 167.5,329.5C 166.167,329.5 164.833,329.5 163.5,329.5C 163.5,298.167 163.5,266.833 163.5,235.5C 164.833,235.5 166.167,235.5 167.5,235.5C 167.128,253.805 170.294,271.472 177,288.5C 194.306,320.51 220.806,332.01 256.5,323C 275.108,314.911 282.608,300.744 279,280.5C 274.792,268.589 267.959,258.423 258.5,250C 239.726,235.226 220.393,221.226 200.5,208C 190,200.167 180.833,191 173,180.5C 156.317,151.578 161.484,127.411 188.5,108C 197.192,103.306 206.192,99.8056 215.5,97.5 Z"/></g>
<g><path style="opacity:1" fill="#0e0e0e" d="M 214.5,138.5 C 232.503,138.333 250.503,138.5 268.5,139C 269.167,140 269.833,141 270.5,142C 263.167,142.333 255.833,142.667 248.5,143C 243.043,143.477 238.876,145.977 236,150.5C 235.831,156.859 235.331,163.193 234.5,169.5C 223.519,161.854 216.853,151.52 214.5,138.5 Z"/></g>
<g><path style="opacity:1" fill="#030303" d="M 314.5,144.5 C 340.421,152.587 357.588,169.587 366,195.5C 373.262,224.206 371.262,252.206 360,279.5C 350.337,297.845 335.837,310.345 316.5,317C 320.573,310.687 323.406,303.853 325,296.5C 337.85,276.097 343.684,253.763 342.5,229.5C 343.193,207.753 337.693,187.753 326,169.5C 322.952,165.408 319.452,161.742 315.5,158.5C 314.507,153.88 314.173,149.214 314.5,144.5 Z"/></g>
<g><path style="opacity:1" fill="#909090" d="M 208.5,233.5 C 207.503,255.66 207.169,277.994 207.5,300.5C 206.171,277.996 206.171,255.33 207.5,232.5C 208.107,232.624 208.44,232.957 208.5,233.5 Z"/></g>
<g><path style="opacity:1" fill="#030303" d="M 208.5,233.5 C 217.568,239.456 226.402,245.789 235,252.5C 235.5,271.497 235.667,290.497 235.5,309.5C 225.04,309.679 215.706,306.679 207.5,300.5C 207.169,277.994 207.503,255.66 208.5,233.5 Z"/></g>
</svg>
